<svg version="1.1" id="Layer_1" xmlns="http://www.w3.org/2000/svg" xmlns:xlink="http://www.w3.org/1999/xlink" x="0px" y="0px"
	 width="100%" viewBox="0 0 800 800" enable-background="new 0 0 800 800" xml:space="preserve">
<path fill="#000000" opacity="1.000000" stroke="none" 
	d="
M801.000000,739.531372 
	C797.629883,737.500366 797.269653,733.667419 797.849792,730.232971 
	C798.917603,723.912048 797.418762,717.622375 798.696106,711.134766 
	C799.435242,707.380615 797.565796,702.231323 798.051697,697.731079 
	C799.748535,682.016479 797.623230,666.130859 800.652222,650.237488 
	C801.000000,679.687561 801.000000,709.375122 801.000000,739.531372 
z"/>
<path fill="#000000" opacity="1.000000" stroke="none" 
	d="
M1.000000,657.468628 
	C4.893147,663.349731 8.408442,669.837402 9.059645,677.476135 
	C9.318679,680.514648 7.956262,682.567322 5.353644,683.771729 
	C3.836374,684.473938 2.354222,685.061340 1.304695,686.843262 
	C1.000000,677.312439 1.000000,667.624878 1.000000,657.468628 
z"/>
<path fill="#000000" opacity="1.000000" stroke="none" 
	d="
M1.000000,776.468689 
	C2.610636,777.971191 3.208324,780.172119 3.168311,782.764038 
	C3.076150,788.733765 3.598898,794.659607 5.837746,800.670288 
	C4.358044,801.000000 2.716088,801.000000 1.000000,801.000000 
	C1.000000,792.979248 1.000000,784.958313 1.000000,776.468689 
z"/>
<path fill="#000000" opacity="1.000000" stroke="none" 
	d="
M1.000000,278.467957 
	C6.675862,286.082245 6.720954,287.722443 1.240906,295.762756 
	C1.000000,290.311951 1.000000,284.623932 1.000000,278.467957 
z"/>
<path fill="#000000" opacity="1.000000" stroke="none" 
	d="
M801.000000,10.513436 
	C799.516479,10.396523 798.032959,9.793044 796.344360,9.106118 
	C796.320740,6.473898 798.227966,3.586923 795.193726,1.241813 
	C796.938965,1.000000 798.877869,1.000000 801.000000,1.000000 
	C801.000000,4.007665 801.000000,7.017268 801.000000,10.513436 
z"/>
<path fill="#000000" opacity="1.000000" stroke="none" 
	d="
M801.000000,774.539368 
	C798.563599,773.249390 798.281128,767.327026 800.725220,763.239746 
	C801.000000,766.692932 801.000000,770.385803 801.000000,774.539368 
z"/>
<path fill="#000000" opacity="1.000000" stroke="none" 
	d="
M356.009583,669.360107 
	C324.501465,668.728455 294.029175,664.518738 264.359406,655.286194 
	C259.626801,653.813477 254.968369,651.826355 250.618820,649.449158 
	C236.289383,641.617310 230.416168,628.364563 228.794128,612.999451 
	C227.696579,602.602661 227.523575,592.112427 227.578796,581.621277 
	C227.674713,563.400085 231.163269,545.703918 234.951996,528.014709 
	C237.454636,516.330139 237.869797,504.356628 239.627350,492.563171 
	C242.594559,472.652679 242.361313,452.511963 243.833069,432.497406 
	C245.121445,414.976593 247.880508,397.568390 249.418671,380.060242 
	C251.072922,361.230957 259.447571,344.836548 266.771790,327.953094 
	C270.734528,318.818390 274.129791,309.447388 278.567108,300.493713 
	C285.170807,287.168823 293.706573,275.539001 306.060364,266.962982 
	C307.820618,265.741028 309.852814,264.488586 310.904755,262.737091 
	C317.712494,251.402267 329.909668,248.847672 340.751251,244.109528 
	C342.915680,243.163574 345.315582,243.749680 347.649658,243.998535 
	C357.528900,245.051788 367.527130,244.736694 377.348053,246.548630 
	C377.911957,246.652679 378.571442,246.238663 380.016327,245.832428 
	C376.304230,238.378342 373.949402,230.610687 368.320618,224.553772 
	C364.175720,220.093643 360.515289,215.410583 353.003601,215.924637 
	C348.351196,216.243011 344.422211,212.082825 341.773102,208.446442 
	C338.191345,203.529770 335.073029,198.113831 333.211548,192.193130 
	C331.313507,186.156052 333.820740,181.980820 340.021271,180.533554 
	C343.089203,179.817474 346.229553,179.330841 349.217743,178.369247 
	C358.492554,175.384628 365.660583,179.372772 372.247650,185.168472 
	C375.620880,188.136459 378.736115,191.397369 381.973297,194.520401 
	C387.211548,199.574066 391.180328,205.414078 393.250336,212.467804 
	C394.074646,215.276718 395.040253,218.044174 395.945435,220.842499 
	C398.503571,220.197678 398.853729,218.200195 399.578918,216.629745 
	C409.573517,194.985733 420.491516,173.704041 435.096436,154.910904 
	C445.061615,142.087997 454.293854,128.446228 468.298889,118.799042 
	C484.406036,107.703781 502.445923,102.982414 520.878845,98.590683 
	C526.666687,97.211700 531.885742,97.699753 537.199707,100.549316 
	C540.086487,102.097298 541.428589,103.667534 541.406311,106.996086 
	C541.320435,119.789001 537.904541,131.726807 531.309875,142.485611 
	C521.071472,159.189072 509.952362,175.323242 498.066528,190.932495 
	C491.979126,198.926819 483.082611,202.897064 475.162231,208.268127 
	C463.883057,215.916855 451.814789,222.378296 440.930908,230.618729 
	C436.862122,233.699310 432.825043,237.012466 430.962189,242.037247 
	C431.950500,243.835022 433.510742,244.224884 435.137878,244.677094 
	C450.633362,248.983902 466.201965,253.057404 481.572784,257.774078 
	C495.350220,262.001831 509.517578,265.625824 521.184082,274.759766 
	C542.717712,291.618866 561.981750,310.635681 573.698792,335.787506 
	C579.929565,349.162506 583.684753,363.577942 587.290161,377.895874 
	C595.478821,410.415375 604.303162,442.713928 617.135315,473.787018 
	C623.601929,489.445984 631.201721,504.628937 636.108643,520.944763 
	C645.246521,551.329102 640.154663,579.817505 624.881653,606.852966 
	C609.821228,633.512207 586.578918,649.293091 557.256897,657.162598 
	C537.108337,662.570190 516.779236,665.755859 495.927551,666.520813 
	C483.184723,666.988281 470.513947,669.495728 457.772583,669.909607 
	C440.338898,670.475891 422.910126,672.663696 405.417328,670.721558 
	C400.966034,670.227356 396.436188,670.445923 391.942749,670.324951 
	C380.130371,670.006897 368.318146,669.682312 356.009583,669.360107 
M490.031189,140.565887 
	C482.800964,144.670029 475.143036,148.376343 470.075134,155.209641 
	C464.804382,162.316391 458.966187,168.844635 452.958923,175.309372 
	C448.811859,179.772247 445.548187,185.055984 441.753906,190.155472 
	C473.098206,182.120056 492.129578,160.510315 507.639313,134.338120 
	C501.377625,134.939758 496.359436,138.519730 490.031189,140.565887 
z"/>
<path fill="#000000" opacity="1.000000" stroke="none" 
	d="
M94.237000,101.163399 
	C99.379044,100.563026 103.047791,103.352539 106.472359,105.727165 
	C117.225304,113.183342 127.111656,121.029053 133.918015,133.188461 
	C140.873245,145.613800 152.775497,154.497421 163.972992,163.509995 
	C182.619415,178.518036 202.514374,191.957428 220.025986,208.397064 
	C228.992447,216.814621 237.685471,225.477737 245.879684,234.643875 
	C248.868454,237.987106 250.213013,241.760635 250.457169,246.392303 
	C251.130157,259.158844 248.029343,270.365631 240.586792,281.028839 
	C235.811905,287.869965 234.622208,296.466095 237.721512,304.905365 
	C239.414459,309.515106 242.460892,312.825317 247.123703,314.606415 
	C248.669846,315.196991 250.127090,316.026733 251.607986,316.780457 
	C258.346436,320.209961 258.716095,321.417389 255.411560,328.438751 
	C254.856598,329.617920 254.217545,330.936401 254.239075,332.179749 
	C254.409149,341.999176 250.304291,350.575958 246.276794,359.088348 
	C244.427505,362.996948 244.286896,367.104645 243.308929,371.107788 
	C237.442078,395.122803 232.646637,419.460022 221.745590,441.955231 
	C219.942810,445.675446 218.664444,449.653137 217.198349,453.532501 
	C213.567154,463.140717 207.787323,466.745270 197.514160,465.670990 
	C194.382568,465.343475 191.258820,464.908875 188.148636,464.415314 
	C181.852631,463.416229 175.894470,462.406616 169.494156,465.578461 
	C165.245285,467.684113 159.513855,467.406799 154.850845,465.459106 
	C145.646317,461.614532 135.750320,460.377014 126.427773,457.365814 
	C113.212822,453.097382 103.475525,443.633514 96.656425,431.470062 
	C94.220741,427.125488 92.283478,422.504547 90.004662,418.068359 
	C84.458984,407.272491 84.145111,395.647919 84.683228,383.942566 
	C84.937340,378.415009 83.839546,373.475739 80.836502,368.787292 
	C75.040321,359.738007 74.193893,349.572327 74.010742,339.098053 
	C73.794373,326.724182 75.414474,314.555634 76.908882,302.358582 
	C77.153221,300.364288 76.922066,298.815948 75.949051,297.193329 
	C69.679649,286.738129 69.196693,275.576324 71.933792,264.024078 
	C72.506866,261.605347 72.745804,259.066528 73.623817,256.768372 
	C76.738998,248.614517 75.648651,241.049393 72.928719,232.758530 
	C69.346199,221.838394 71.576218,210.397934 74.169556,199.336624 
	C75.038567,195.630051 75.742661,191.863541 77.435837,188.362885 
	C79.701607,183.678391 75.787148,180.346970 74.044464,176.978912 
	C61.150253,152.058624 65.215973,128.831757 80.356239,106.591728 
	C83.488029,101.991356 89.188347,102.667542 94.237000,101.163399 
z"/>
<path fill="#000000" opacity="1.000000" stroke="none" 
	d="
M757.863037,436.843353 
	C753.403320,449.673767 743.695190,457.511139 733.655884,465.042755 
	C727.671570,469.532288 720.172913,469.431976 713.347717,471.153198 
	C710.343445,471.910889 707.190186,472.334106 704.414062,473.717316 
	C695.056091,478.380096 685.882202,478.938293 676.181030,474.316406 
	C671.694458,472.178864 666.943726,475.699951 662.165161,475.877899 
	C658.045166,476.031311 653.934753,476.546082 649.771790,476.585876 
	C642.736023,476.653076 638.299866,472.801331 635.968323,466.935974 
	C626.716736,443.661957 616.566467,420.787872 612.197205,395.709259 
	C610.367920,385.209564 608.448608,374.245361 603.227661,364.292542 
	C599.988403,358.117401 597.285706,351.278870 597.813660,343.858612 
	C598.004761,341.173004 596.278992,339.155548 595.347229,336.875061 
	C593.916565,333.373535 594.605957,330.707031 598.034973,328.944061 
	C600.402893,327.726624 602.770264,326.492706 605.211365,325.435852 
	C612.128479,322.440948 615.251343,316.786560 615.554199,309.693878 
	C615.886719,301.904480 613.912048,294.792450 609.097290,288.221497 
	C601.513123,277.870880 600.662170,265.731476 601.924377,253.411301 
	C602.190674,250.811676 603.810974,248.467911 605.600220,246.417282 
	C618.970581,231.093460 633.772522,217.295166 649.505310,204.415985 
	C665.074768,191.670502 681.806946,180.406631 696.879761,167.046188 
	C706.868286,158.192444 716.611755,149.112198 722.660645,136.865601 
	C724.611328,132.916153 727.629333,129.732254 731.079651,127.117805 
	C736.378601,123.102608 741.690369,119.015495 747.408997,115.662041 
	C758.001953,109.450226 769.449097,112.080872 775.301697,122.751213 
	C786.774231,143.667542 790.219421,165.229813 778.106201,187.373657 
	C775.282959,192.534836 773.390381,197.341644 775.976990,204.046814 
	C779.968567,214.394287 781.022766,225.631943 780.426270,236.906982 
	C780.154297,242.047272 778.534119,246.685150 776.486389,251.224182 
	C775.314087,253.822845 775.225464,256.140228 776.004883,258.898346 
	C779.119385,269.919647 782.017151,280.980164 781.447632,292.642975 
	C781.217163,297.362488 779.307434,301.475281 777.094604,305.255157 
	C774.497437,309.691559 774.640076,314.139679 775.524048,318.605469 
	C778.335266,332.808960 777.247620,347.141632 777.325989,361.430664 
	C777.361694,367.948090 774.703186,373.897614 771.386780,379.240570 
	C767.925110,384.817841 766.927795,390.585297 767.361633,396.866241 
	C768.340881,411.042694 765.709534,424.373138 757.863037,436.843353 
z"/>
<path fill="#000000" opacity="1.000000" stroke="none" 
	d="
M485.170288,26.438320 
	C491.060455,27.283234 496.353180,28.671602 501.306976,31.092411 
	C510.759827,35.711784 514.543335,45.745323 511.434143,55.870365 
	C508.007416,67.029556 500.594482,74.330559 490.422760,79.201660 
	C477.109070,85.577408 462.938721,88.765587 448.331940,90.438850 
	C433.283112,92.162766 418.199432,92.536354 403.078827,92.370850 
	C391.224335,92.241104 379.628540,90.219986 368.324677,86.925911 
	C358.632111,84.101364 352.848358,76.937431 349.977936,67.447548 
	C348.885437,63.835663 350.525482,60.575142 352.285645,57.521553 
	C355.208099,52.451679 359.678802,48.833183 364.702332,46.241882 
	C384.241241,36.162952 404.092987,27.077055 426.581024,25.471148 
	C439.044617,24.581100 451.421844,24.201260 463.857147,25.532532 
	C470.787842,26.274504 477.824432,24.819113 485.170288,26.438320 
M383.293365,52.901081 
	C378.462189,55.159111 373.661377,57.532139 369.506256,60.881981 
	C367.809814,62.249634 365.302002,63.822407 365.825134,66.395561 
	C366.331390,68.885605 369.055206,69.838249 371.209473,70.375961 
	C379.885651,72.541527 388.666809,74.539993 397.637726,74.562424 
	C407.590271,74.587311 417.528259,74.683548 427.516754,73.874573 
	C440.646454,72.811203 453.551117,71.047195 466.092285,67.107193 
	C475.304718,64.212990 484.478729,61.086300 491.247284,53.530186 
	C494.486450,49.914043 494.444061,49.016773 489.891022,47.372803 
	C477.622925,42.943165 465.620331,37.536217 452.184784,37.391994 
	C446.619690,37.332256 440.978790,36.038509 435.512146,36.619976 
	C417.338989,38.552979 400.221161,44.266907 383.293365,52.901081 
z"/>
</svg>